<?xml version="1.0" encoding="UTF-8" standalone="no"?>
<!DOCTYPE svg PUBLIC "-//W3C//DTD SVG 1.1//EN"
 "http://www.w3.org/Graphics/SVG/1.1/DTD/svg11.dtd">
<!-- Generated by graphviz version 2.50.0 (20211204.2007)
 -->
<!-- Title: undefined Pages: 1 -->
<svg width="400pt" height="372pt"
 viewBox="0.00 0.00 399.60 371.60" xmlns="http://www.w3.org/2000/svg" xmlns:xlink="http://www.w3.org/1999/xlink">
<g id="graph0" class="graph" transform="scale(1 1) rotate(0) translate(28.8 321.8)">
<title>undefined</title>
<polygon fill="white" stroke="transparent" points="-28.8,49.8 -28.8,-321.8 370.8,-321.8 370.8,49.8 -28.8,49.8"/>
<text text-anchor="start" x="149.5" y="12.6" font-family="Helvetica,sans-Serif" font-weight="bold" font-size="12.00">data.db</text>
<!-- users -->
<g id="node1" class="node">
<title>users</title>
<path fill="none" stroke="black" d="M11.7,-44.72C11.7,-44.72 131.7,-44.72 131.7,-44.72 137.7,-44.72 143.7,-50.72 143.7,-56.72 143.7,-56.72 143.7,-119.72 143.7,-119.72 143.7,-125.72 137.7,-131.72 131.7,-131.72 131.7,-131.72 11.7,-131.72 11.7,-131.72 5.7,-131.72 -0.3,-125.72 -0.3,-119.72 -0.3,-119.72 -0.3,-56.72 -0.3,-56.72 -0.3,-50.72 5.7,-44.72 11.7,-44.72"/>
<text text-anchor="start" x="54.7" y="-111.32" font-family="Helvetica,sans-Serif" font-weight="bold" font-size="13.00">users</text>
<polyline fill="none" stroke="black" points="-0.3,-101.72 143.7,-101.72 "/>
<text text-anchor="start" x="6.7" y="-87.62" font-family="Helvetica,sans-Serif" font-size="12.00">id* </text>
<text text-anchor="start" x="24.7" y="-87.62" font-family="Helvetica,sans-Serif" font-weight="bold" font-size="12.00">integer</text>
<text text-anchor="start" x="6.7" y="-70.62" font-family="Helvetica,sans-Serif" font-size="12.00">username </text>
<text text-anchor="start" x="61.7" y="-70.62" font-family="Helvetica,sans-Serif" font-weight="bold" font-size="12.00">varchar(80)</text>
<text text-anchor="start" x="6.7" y="-53.62" font-family="Helvetica,sans-Serif" font-size="12.00">password </text>
<text text-anchor="start" x="61.7" y="-53.62" font-family="Helvetica,sans-Serif" font-weight="bold" font-size="12.00">varchar(80)</text>
</g>
<!-- categories -->
<g id="node2" class="node">
<title>categories</title>
<path fill="none" stroke="black" d="M119.12,-188.93C119.12,-188.93 242.12,-188.93 242.12,-188.93 248.12,-188.93 254.12,-194.93 254.12,-200.93 254.12,-200.93 254.12,-280.93 254.12,-280.93 254.12,-286.93 248.12,-292.93 242.12,-292.93 242.12,-292.93 119.12,-292.93 119.12,-292.93 113.12,-292.93 107.12,-286.93 107.12,-280.93 107.12,-280.93 107.12,-200.93 107.12,-200.93 107.12,-194.93 113.12,-188.93 119.12,-188.93"/>
<text text-anchor="start" x="149.62" y="-272.53" font-family="Helvetica,sans-Serif" font-weight="bold" font-size="13.00">categories</text>
<polyline fill="none" stroke="black" points="107.12,-262.93 254.12,-262.93 "/>
<text text-anchor="start" x="114.62" y="-249.33" font-family="Helvetica,sans-Serif" font-size="12.00">id* </text>
<text text-anchor="start" x="132.62" y="-249.33" font-family="Helvetica,sans-Serif" font-weight="bold" font-size="12.00">integer</text>
<text text-anchor="start" x="114.62" y="-232.33" font-family="Helvetica,sans-Serif" font-size="12.00">name </text>
<text text-anchor="start" x="147.62" y="-232.33" font-family="Helvetica,sans-Serif" font-weight="bold" font-size="12.00">varchar(60)</text>
<text text-anchor="start" x="114.62" y="-215.33" font-family="Helvetica,sans-Serif" font-size="12.00">description </text>
<text text-anchor="start" x="175.62" y="-215.33" font-family="Helvetica,sans-Serif" font-weight="bold" font-size="12.00">varchar(100)</text>
<text text-anchor="start" x="114.62" y="-198.33" font-family="Helvetica,sans-Serif" font-size="12.00">user_id </text>
<text text-anchor="start" x="157.62" y="-198.33" font-family="Helvetica,sans-Serif" font-weight="bold" font-size="12.00">integer</text>
</g>
<!-- categories&#45;&gt;users -->
<g id="edge1" class="edge">
<title>categories&#45;&gt;users</title>
<path fill="none" stroke="black" stroke-width="0.9" d="M143.44,-188.81C131.9,-172.63 119.2,-154.83 107.74,-138.76"/>
<polygon fill="black" stroke="black" stroke-width="0.9" points="109.84,-136.87 102.91,-131.99 105.28,-140.13 109.84,-136.87"/>
</g>
<!-- expenses -->
<g id="node3" class="node">
<title>expenses</title>
<path fill="none" stroke="black" d="M209.87,-0.66C209.87,-0.66 329.87,-0.66 329.87,-0.66 335.87,-0.66 341.87,-6.66 341.87,-12.66 341.87,-12.66 341.87,-143.66 341.87,-143.66 341.87,-149.66 335.87,-155.66 329.87,-155.66 329.87,-155.66 209.87,-155.66 209.87,-155.66 203.87,-155.66 197.87,-149.66 197.87,-143.66 197.87,-143.66 197.87,-12.66 197.87,-12.66 197.87,-6.66 203.87,-0.66 209.87,-0.66"/>
<text text-anchor="start" x="241.87" y="-135.26" font-family="Helvetica,sans-Serif" font-weight="bold" font-size="13.00">expenses</text>
<polyline fill="none" stroke="black" points="197.87,-125.66 341.87,-125.66 "/>
<text text-anchor="start" x="204.87" y="-111.56" font-family="Helvetica,sans-Serif" font-size="12.00">id* </text>
<text text-anchor="start" x="222.87" y="-111.56" font-family="Helvetica,sans-Serif" font-weight="bold" font-size="12.00">integer</text>
<text text-anchor="start" x="204.87" y="-94.56" font-family="Helvetica,sans-Serif" font-size="12.00">name </text>
<text text-anchor="start" x="237.87" y="-94.56" font-family="Helvetica,sans-Serif" font-weight="bold" font-size="12.00">varchar(60)</text>
<text text-anchor="start" x="204.87" y="-77.56" font-family="Helvetica,sans-Serif" font-size="12.00">description </text>
<text text-anchor="start" x="265.87" y="-77.56" font-family="Helvetica,sans-Serif" font-weight="bold" font-size="12.00">varchar(60)</text>
<text text-anchor="start" x="204.87" y="-60.56" font-family="Helvetica,sans-Serif" font-size="12.00">amount </text>
<text text-anchor="start" x="246.87" y="-60.56" font-family="Helvetica,sans-Serif" font-weight="bold" font-size="12.00">float</text>
<text text-anchor="start" x="204.87" y="-43.56" font-family="Helvetica,sans-Serif" font-size="12.00">date </text>
<text text-anchor="start" x="231.87" y="-43.56" font-family="Helvetica,sans-Serif" font-weight="bold" font-size="12.00">datetime</text>
<text text-anchor="start" x="204.87" y="-26.56" font-family="Helvetica,sans-Serif" font-size="12.00">category_id </text>
<text text-anchor="start" x="269.87" y="-26.56" font-family="Helvetica,sans-Serif" font-weight="bold" font-size="12.00">integer</text>
<text text-anchor="start" x="204.87" y="-9.56" font-family="Helvetica,sans-Serif" font-size="12.00">user_id </text>
<text text-anchor="start" x="247.87" y="-9.56" font-family="Helvetica,sans-Serif" font-weight="bold" font-size="12.00">integer</text>
</g>
<!-- expenses&#45;&gt;users -->
<g id="edge2" class="edge">
<title>expenses&#45;&gt;users</title>
<path fill="none" stroke="black" stroke-width="0.9" d="M197.77,-81.82C182.92,-82.58 167.2,-83.37 152.08,-84.14"/>
<polygon fill="black" stroke="black" stroke-width="0.9" points="151.6,-81.36 143.75,-84.56 151.88,-86.95 151.6,-81.36"/>
</g>
<!-- expenses&#45;&gt;categories -->
<g id="edge3" class="edge">
<title>expenses&#45;&gt;categories</title>
<path fill="none" stroke="black" stroke-width="0.9" d="M227.34,-155.73C222.62,-164.35 217.86,-173.02 213.29,-181.36"/>
<polygon fill="black" stroke="black" stroke-width="0.9" points="210.71,-180.23 209.32,-188.59 215.62,-182.92 210.71,-180.23"/>
</g>
</g>
</svg>
